<svg xmlns="http://www.w3.org/2000/svg" viewBox="0 0 248 48" fill="none" role="img" aria-label="Kazmoto Japan">
  <rect x="0" y="4" width="40" height="40" rx="11" fill="#1a2e35"/>
  <path d="M11 36V12h5.1c3 0 4.9 1.6 4.9 4.2 0 1.9-1 3.2-2.6 3.8L22 36h-3.6l-3-6.1h-2.4V36H11zm3.9-9.2h1.1c1.4 0 2.1-.6 2.1-1.8s-.7-1.8-2.1-1.8h-1.1v3.6z" fill="#fffdf9"/>
  <path d="M24 12h3.8v24H24V12z" fill="#fffdf9" opacity=".85"/>
  <circle cx="30" cy="14" r="2.5" fill="#c4795a"/>
  <path d="M8 38c5-3.8 10-3.8 15 0" stroke="#c4795a" stroke-width="1.5" stroke-linecap="round" opacity=".45"/>
  <text x="52" y="31" font-family="Georgia, 'Times New Roman', serif" font-size="26" font-weight="500" fill="#1a2e35" letter-spacing=".05em">Kazmoto</text>
  <text x="53" y="44" font-family="Arial, Helvetica, sans-serif" font-size="8.5" font-weight="600" fill="#c4795a" letter-spacing=".24em">JAPAN</text>
</svg>
