<svg xmlns="http://www.w3.org/2000/svg" viewBox="0 0 260 52" fill="none" role="img" aria-label="Kazmoto Japan">
  <rect x="0" y="6" width="40" height="40" rx="11" fill="#1a2e35"/>
  <path d="M11 38V14h5.1c3 0 4.9 1.6 4.9 4.2 0 1.9-1 3.2-2.6 3.8L22 38h-3.6l-3-6.1h-2.4V38H11zm3.9-9.2h1.1c1.4 0 2.1-.6 2.1-1.8s-.7-1.8-2.1-1.8h-1.1v3.6z" fill="#fffdf9"/>
  <path d="M24 14h3.8v24H24V14z" fill="#fffdf9" opacity=".85"/>
  <circle cx="30" cy="16" r="2.5" fill="#c4795a"/>
  <path d="M8 40c5-3.8 10-3.8 15 0" stroke="#c4795a" stroke-width="1.5" stroke-linecap="round" opacity=".5"/>
  <text x="52" y="34" font-family="Georgia, 'Times New Roman', serif" font-size="28" font-weight="500" fill="#fffdf9" letter-spacing=".04em">Kazmoto</text>
  <text x="52" y="48" font-family="Arial, Helvetica, sans-serif" font-size="9" font-weight="600" fill="#d4a574" letter-spacing=".22em">JAPAN</text>
</svg>
